# xmcd
#
# Track frame offsets: 
#        150
#        17565
#        49635
#        67260
#        80767
#        100080
#        114827
#        139807
#        152675
#        173765
#        192945
#        210142
#        230507
#        264640
#
# Disc length: 3739 seconds
#
# Revision: 9
# Processed by: cddbd v1.5.2PL0 Copyright (c) Steve Scherf et al.
# Submitted via: ExactAudioCopy v0.95b4
#
DISCID=b50e990e
DTITLE=Bob Marley and The Wailers - Legend ~ The Best Of Bob Marley and Th
DTITLE=e Wailers
DYEAR=1984
DGENRE=Reggae
TTITLE0=Is This Love
TTITLE1=No Woman No Cry
TTITLE2=Could You Be Loved
TTITLE3=Three Little Birds
TTITLE4=Buffalo Soldier
TTITLE5=Get Up Stand Up
TTITLE6=Stir It Up
TTITLE7=One Love - People Get Ready
TTITLE8=I Shot The Sheriff
TTITLE9=Waiting In Vain
TTITLE10=Redemption Song
TTITLE11=Satisfy My Soul
TTITLE12=Exodus
TTITLE13=Jamming
EXTD=PolyGram Group Canada Inc. - CID 103.
EXTT0=PolyGram Group Canada Inc. - CID 103.
EXTT1=PolyGram Group Canada Inc. - CID 103.
EXTT2=PolyGram Group Canada Inc. - CID 103.
EXTT3=PolyGram Group Canada Inc. - CID 103.
EXTT4=PolyGram Group Canada Inc. - CID 103.
EXTT5=PolyGram Group Canada Inc. - CID 103.
EXTT6=PolyGram Group Canada Inc. - CID 103.
EXTT7=PolyGram Group Canada Inc. - CID 103.
EXTT8=PolyGram Group Canada Inc. - CID 103.
EXTT9=PolyGram Group Canada Inc. - CID 103.
EXTT10=PolyGram Group Canada Inc. - CID 103.
EXTT11=PolyGram Group Canada Inc. - CID 103.
EXTT12=PolyGram Group Canada Inc. - CID 103.
EXTT13=PolyGram Group Canada Inc. - CID 103.
PLAYORDER=
